<mxfile host="app.diagrams.net" agent="Mozilla/5.0 (Macintosh; Intel Mac OS X 10.15; rv:139.0) Gecko/20100101 Firefox/139.0" version="27.1.3">
  <diagram name="Page-1" id="PPc9xH1Er7qe8WbNBYes">
    <mxGraphModel dx="592" dy="404" grid="1" gridSize="10" guides="1" tooltips="1" connect="1" arrows="1" fold="1" page="1" pageScale="1" pageWidth="850" pageHeight="1100" math="0" shadow="0">
      <root>
        <mxCell id="0" />
        <mxCell id="1" parent="0" />
        <mxCell id="3kHgu-mB0LP-RxRDdgQs-26" value="" style="rounded=0;whiteSpace=wrap;html=1;fillColor=#CCE5FF;strokeColor=#82b366;opacity=30;" vertex="1" parent="1">
          <mxGeometry x="230" y="110" width="100" height="260" as="geometry" />
        </mxCell>
        <mxCell id="3kHgu-mB0LP-RxRDdgQs-23" value="" style="rounded=0;whiteSpace=wrap;html=1;fillColor=#D5E8D4;strokeColor=#648C4F;opacity=30;" vertex="1" parent="1">
          <mxGeometry x="350" y="110" width="100" height="260" as="geometry" />
        </mxCell>
        <mxCell id="3kHgu-mB0LP-RxRDdgQs-24" value="" style="rounded=0;whiteSpace=wrap;html=1;fillColor=#d5e8d4;strokeColor=#82b366;opacity=30;" vertex="1" parent="1">
          <mxGeometry x="470" y="110" width="100" height="260" as="geometry" />
        </mxCell>
        <mxCell id="3kHgu-mB0LP-RxRDdgQs-25" value="" style="rounded=0;whiteSpace=wrap;html=1;fillColor=#d5e8d4;strokeColor=#82b366;opacity=30;" vertex="1" parent="1">
          <mxGeometry x="590" y="110" width="100" height="260" as="geometry" />
        </mxCell>
        <mxCell id="3kHgu-mB0LP-RxRDdgQs-1" value="CPU" style="rounded=1;whiteSpace=wrap;html=1;" vertex="1" parent="1">
          <mxGeometry x="240" y="120" width="80" height="40" as="geometry" />
        </mxCell>
        <mxCell id="3kHgu-mB0LP-RxRDdgQs-2" value="&lt;font style=&quot;font-size: 11px;&quot;&gt;Cuda&amp;nbsp;&lt;br&gt;Default Stream&lt;/font&gt;" style="rounded=1;whiteSpace=wrap;html=1;" vertex="1" parent="1">
          <mxGeometry x="360" y="120" width="80" height="40" as="geometry" />
        </mxCell>
        <mxCell id="3kHgu-mB0LP-RxRDdgQs-3" value="&lt;font style=&quot;font-size: 11px;&quot;&gt;Cuda&amp;nbsp;&lt;br&gt;&lt;/font&gt;Stream 1" style="rounded=1;whiteSpace=wrap;html=1;" vertex="1" parent="1">
          <mxGeometry x="480" y="120" width="80" height="40" as="geometry" />
        </mxCell>
        <mxCell id="3kHgu-mB0LP-RxRDdgQs-5" value="&lt;font style=&quot;font-size: 11px;&quot;&gt;Cuda&amp;nbsp;&lt;br&gt;&lt;/font&gt;Stream 2" style="rounded=1;whiteSpace=wrap;html=1;" vertex="1" parent="1">
          <mxGeometry x="600" y="120" width="80" height="40" as="geometry" />
        </mxCell>
        <mxCell id="3kHgu-mB0LP-RxRDdgQs-7" value="" style="endArrow=classic;html=1;rounded=0;" edge="1" parent="1">
          <mxGeometry width="50" height="50" relative="1" as="geometry">
            <mxPoint x="200" y="120" as="sourcePoint" />
            <mxPoint x="200" y="360" as="targetPoint" />
          </mxGeometry>
        </mxCell>
        <mxCell id="3kHgu-mB0LP-RxRDdgQs-8" value="" style="rounded=0;whiteSpace=wrap;html=1;" vertex="1" parent="1">
          <mxGeometry x="267.5" y="170" width="25" height="20" as="geometry" />
        </mxCell>
        <mxCell id="3kHgu-mB0LP-RxRDdgQs-9" value="" style="rounded=0;whiteSpace=wrap;html=1;" vertex="1" parent="1">
          <mxGeometry x="387.5" y="210" width="25" height="60" as="geometry" />
        </mxCell>
        <mxCell id="3kHgu-mB0LP-RxRDdgQs-10" value="" style="rounded=0;whiteSpace=wrap;html=1;" vertex="1" parent="1">
          <mxGeometry x="507.5" y="250" width="25" height="60" as="geometry" />
        </mxCell>
        <mxCell id="3kHgu-mB0LP-RxRDdgQs-11" value="" style="rounded=0;whiteSpace=wrap;html=1;" vertex="1" parent="1">
          <mxGeometry x="627.5" y="290" width="25" height="60" as="geometry" />
        </mxCell>
        <mxCell id="3kHgu-mB0LP-RxRDdgQs-19" style="edgeStyle=orthogonalEdgeStyle;rounded=0;orthogonalLoop=1;jettySize=auto;html=1;entryX=0.5;entryY=0;entryDx=0;entryDy=0;dashed=1;" edge="1" parent="1" source="3kHgu-mB0LP-RxRDdgQs-13" target="3kHgu-mB0LP-RxRDdgQs-10">
          <mxGeometry relative="1" as="geometry">
            <Array as="points">
              <mxPoint x="280" y="240" />
              <mxPoint x="520" y="240" />
            </Array>
          </mxGeometry>
        </mxCell>
        <mxCell id="3kHgu-mB0LP-RxRDdgQs-31" value="Run Kernel" style="edgeLabel;html=1;align=center;verticalAlign=middle;resizable=0;points=[];" vertex="1" connectable="0" parent="3kHgu-mB0LP-RxRDdgQs-19">
          <mxGeometry x="-0.5295" relative="1" as="geometry">
            <mxPoint x="-11" as="offset" />
          </mxGeometry>
        </mxCell>
        <mxCell id="3kHgu-mB0LP-RxRDdgQs-13" value="" style="rounded=0;whiteSpace=wrap;html=1;" vertex="1" parent="1">
          <mxGeometry x="267.5" y="210" width="25" height="20" as="geometry" />
        </mxCell>
        <mxCell id="3kHgu-mB0LP-RxRDdgQs-14" value="" style="rounded=0;whiteSpace=wrap;html=1;" vertex="1" parent="1">
          <mxGeometry x="267.5" y="250" width="25" height="20" as="geometry" />
        </mxCell>
        <mxCell id="3kHgu-mB0LP-RxRDdgQs-17" value="" style="rounded=0;whiteSpace=wrap;html=1;" vertex="1" parent="1">
          <mxGeometry x="267.5" y="300" width="25" height="50" as="geometry" />
        </mxCell>
        <mxCell id="3kHgu-mB0LP-RxRDdgQs-18" value="" style="endArrow=classic;html=1;rounded=0;exitX=0.5;exitY=1;exitDx=0;exitDy=0;entryX=0.5;entryY=0;entryDx=0;entryDy=0;dashed=1;" edge="1" parent="1" source="3kHgu-mB0LP-RxRDdgQs-8" target="3kHgu-mB0LP-RxRDdgQs-9">
          <mxGeometry width="50" height="50" relative="1" as="geometry">
            <mxPoint x="460" y="250" as="sourcePoint" />
            <mxPoint x="380" y="190" as="targetPoint" />
            <Array as="points">
              <mxPoint x="280" y="200" />
              <mxPoint x="400" y="200" />
            </Array>
          </mxGeometry>
        </mxCell>
        <mxCell id="3kHgu-mB0LP-RxRDdgQs-27" value="Run Kernel" style="edgeLabel;html=1;align=center;verticalAlign=middle;resizable=0;points=[];" vertex="1" connectable="0" parent="3kHgu-mB0LP-RxRDdgQs-18">
          <mxGeometry x="0.0122" y="-1" relative="1" as="geometry">
            <mxPoint x="-21" as="offset" />
          </mxGeometry>
        </mxCell>
        <mxCell id="3kHgu-mB0LP-RxRDdgQs-20" style="edgeStyle=orthogonalEdgeStyle;rounded=0;orthogonalLoop=1;jettySize=auto;html=1;entryX=0.5;entryY=0;entryDx=0;entryDy=0;dashed=1;" edge="1" parent="1" target="3kHgu-mB0LP-RxRDdgQs-11">
          <mxGeometry relative="1" as="geometry">
            <mxPoint x="280" y="270" as="sourcePoint" />
            <mxPoint x="520" y="290" as="targetPoint" />
            <Array as="points">
              <mxPoint x="280" y="280" />
              <mxPoint x="640" y="280" />
            </Array>
          </mxGeometry>
        </mxCell>
        <mxCell id="3kHgu-mB0LP-RxRDdgQs-32" value="Run Kernel" style="edgeLabel;html=1;align=center;verticalAlign=middle;resizable=0;points=[];" vertex="1" connectable="0" parent="1">
          <mxGeometry x="320" y="280" as="geometry" />
        </mxCell>
        <mxCell id="3kHgu-mB0LP-RxRDdgQs-34" value="" style="endArrow=none;dashed=1;html=1;dashPattern=1 3;strokeWidth=2;rounded=0;exitX=0.5;exitY=1;exitDx=0;exitDy=0;" edge="1" parent="1" source="3kHgu-mB0LP-RxRDdgQs-17">
          <mxGeometry width="50" height="50" relative="1" as="geometry">
            <mxPoint x="310" y="360" as="sourcePoint" />
            <mxPoint x="640" y="360" as="targetPoint" />
            <Array as="points">
              <mxPoint x="280" y="360" />
              <mxPoint x="640" y="360" />
            </Array>
          </mxGeometry>
        </mxCell>
        <mxCell id="3kHgu-mB0LP-RxRDdgQs-38" value="Synchronize - wait for all streams to finish calculations" style="edgeLabel;html=1;align=center;verticalAlign=middle;resizable=0;points=[];" vertex="1" connectable="0" parent="3kHgu-mB0LP-RxRDdgQs-34">
          <mxGeometry x="-0.7938" y="-1" relative="1" as="geometry">
            <mxPoint x="172" y="-1" as="offset" />
          </mxGeometry>
        </mxCell>
        <mxCell id="3kHgu-mB0LP-RxRDdgQs-41" value="&lt;font style=&quot;font-size: 10px;&quot;&gt;Sync&lt;/font&gt;" style="text;html=1;align=center;verticalAlign=middle;resizable=0;points=[];autosize=1;strokeColor=none;fillColor=none;rotation=-90;" vertex="1" parent="1">
          <mxGeometry x="255" y="310" width="50" height="30" as="geometry" />
        </mxCell>
      </root>
    </mxGraphModel>
  </diagram>
</mxfile>
